# xmcd
#
# Track frame offsets: 
#        183
#        29258
#        53658
#        76233
#        97008
#        125133
#        146733
#        170405
#        192258
#        230163
#        258183
#        280053
#
# Disc length: 4100 seconds
#
# Revision: 1
# Processed by: cddbd v1.5.2PL0 Copyright (c) Steve Scherf et al.
# Submitted via: ExactAudioCopy v1.0b1
#
DISCID=a810020c
DTITLE=Walter Bishop Jr. Trio - Midnight Blue
DYEAR=1991
DGENRE=Blues
TTITLE0=Sweet and lovely
TTITLE1=Never let me go
TTITLE2=You don't know what love it was
TTITLE3=Lady Barbara
TTITLE4=I should care
TTITLE5=More I see you
TTITLE6=The Christmas song
TTITLE7=Farmer's delight
TTITLE8=Up jumped spring
TTITLE9=Autumn in New York
TTITLE10=What is this called love
TTITLE11=Midnight blue
EXTD=YEAR: 1991
EXTT0=
EXTT1=
EXTT2=
EXTT3=
EXTT4=
EXTT5=
EXTT6=
EXTT7=
EXTT8=
EXTT9=
EXTT10=
EXTT11=
PLAYORDER=
